<svg width="21" height="21" viewBox="0 0 21 21" fill="none" xmlns="http://www.w3.org/2000/svg">
<g clip-path="url(#clip0)">
<path d="M10.3504 10.1348C11.7401 10.1348 12.9435 9.66113 13.9267 8.72648C14.91 7.79198 15.4084 6.64857 15.4084 5.3276C15.4084 4.00709 14.91 2.86353 13.9266 1.92873C12.9432 0.99438 11.7399 0.52066 10.3504 0.52066C8.96047 0.52066 7.7574 0.99438 6.77415 1.92888C5.79089 2.86337 5.2923 4.00694 5.2923 5.3276C5.2923 6.64857 5.79089 7.79213 6.77431 8.72663C7.75772 9.66098 8.96095 10.1348 10.3504 10.1348V10.1348Z" fill="white"/>
<path d="M19.2006 15.8679C19.1722 15.479 19.1149 15.0548 19.0304 14.6068C18.9452 14.1555 18.8355 13.7288 18.7041 13.3388C18.5684 12.9358 18.3838 12.5377 18.1557 12.1563C17.9189 11.7604 17.6407 11.4156 17.3286 11.1319C17.0023 10.8352 16.6027 10.5965 16.1406 10.4225C15.6801 10.2494 15.1699 10.1617 14.624 10.1617C14.4096 10.1617 14.2023 10.2452 13.8019 10.493C13.5555 10.6457 13.2673 10.8224 12.9456 11.0177C12.6705 11.1843 12.2978 11.3404 11.8375 11.4817C11.3884 11.6198 10.9324 11.6899 10.4824 11.6899C10.0323 11.6899 9.57651 11.6198 9.12694 11.4817C8.66711 11.3405 8.29445 11.1845 8.01968 11.0179C7.701 10.8243 7.41261 10.6477 7.16251 10.4928C6.76261 10.2451 6.55513 10.1615 6.34076 10.1615C5.79474 10.1615 5.28461 10.2494 4.8243 10.4226C4.36256 10.5964 3.96281 10.835 3.63613 11.1321C3.32419 11.4159 3.04589 11.7605 2.80941 12.1563C2.58142 12.5377 2.39685 12.9356 2.26099 13.339C2.12977 13.7289 2.02002 14.1555 1.93478 14.6068C1.85035 15.0542 1.79299 15.4786 1.76463 15.8684C1.73676 16.2503 1.72266 16.6466 1.72266 17.047C1.72266 18.0888 2.07113 18.9322 2.7583 19.5543C3.43698 20.1681 4.335 20.4795 5.42704 20.4795H15.5387C16.6307 20.4795 17.5284 20.1682 18.2073 19.5543C18.8946 18.9327 19.2431 18.0891 19.2431 17.0468C19.2429 16.6447 19.2286 16.248 19.2006 15.8679V15.8679Z" fill="white"/>
</g>
<defs>
<clipPath id="clip0">
<rect width="21" height="19.9588" fill="white" transform="translate(0 0.52066)"/>
</clipPath>
</defs>
</svg>
