<svg width="112" height="165" viewBox="0 0 112 165" fill="none" xmlns="http://www.w3.org/2000/svg">
<circle cx="5.90515" cy="159.224" r="5" transform="rotate(-90 5.90515 159.224)" fill="url(#paint0_linear)"/>
<circle cx="5.90515" cy="124.224" r="5" transform="rotate(-90 5.90515 124.224)" fill="url(#paint1_linear)"/>
<circle cx="5.90515" cy="19.2243" r="5" transform="rotate(-90 5.90515 19.2243)" fill="url(#paint2_linear)"/>
<circle cx="5.90515" cy="89.2243" r="5" transform="rotate(-90 5.90515 89.2243)" fill="url(#paint3_linear)"/>
<circle cx="5.90515" cy="54.2243" r="5" transform="rotate(-90 5.90515 54.2243)" fill="url(#paint4_linear)"/>
<circle cx="35.9052" cy="159.224" r="5" transform="rotate(-90 35.9052 159.224)" fill="url(#paint5_linear)"/>
<circle cx="35.9052" cy="124.224" r="5" transform="rotate(-90 35.9052 124.224)" fill="url(#paint6_linear)"/>
<circle cx="35.9052" cy="19.2243" r="5" transform="rotate(-90 35.9052 19.2243)" fill="url(#paint7_linear)"/>
<circle cx="35.9052" cy="89.2243" r="5" transform="rotate(-90 35.9052 89.2243)" fill="url(#paint8_linear)"/>
<circle cx="35.9052" cy="54.2243" r="5" transform="rotate(-90 35.9052 54.2243)" fill="url(#paint9_linear)"/>
<circle cx="65.9052" cy="159.224" r="5" transform="rotate(-90 65.9052 159.224)" fill="url(#paint10_linear)"/>
<circle cx="65.9052" cy="124.224" r="5" transform="rotate(-90 65.9052 124.224)" fill="url(#paint11_linear)"/>
<circle cx="65.9052" cy="19.2243" r="5" transform="rotate(-90 65.9052 19.2243)" fill="url(#paint12_linear)"/>
<circle cx="65.9052" cy="89.2243" r="5" transform="rotate(-90 65.9052 89.2243)" fill="url(#paint13_linear)"/>
<circle cx="65.9052" cy="54.2243" r="5" transform="rotate(-90 65.9052 54.2243)" fill="url(#paint14_linear)"/>
<circle cx="95.9052" cy="159.224" r="5" transform="rotate(-90 95.9052 159.224)" fill="url(#paint15_linear)"/>
<circle cx="95.9052" cy="124.224" r="5" transform="rotate(-90 95.9052 124.224)" fill="url(#paint16_linear)"/>
<circle cx="95.9052" cy="19.2243" r="5" transform="rotate(-90 95.9052 19.2243)" fill="url(#paint17_linear)"/>
<circle cx="95.9052" cy="89.2243" r="5" transform="rotate(-90 95.9052 89.2243)" fill="url(#paint18_linear)"/>
<circle cx="95.9052" cy="54.2243" r="5" transform="rotate(-90 95.9052 54.2243)" fill="url(#paint19_linear)"/>
<defs>
<linearGradient id="paint0_linear" x1="5.90515" y1="154.224" x2="5.90515" y2="164.224" gradientUnits="userSpaceOnUse">
<stop stop-color="#5596F8"/>
<stop offset="1" stop-color="#1A8EF9"/>
</linearGradient>
<linearGradient id="paint1_linear" x1="5.90515" y1="119.224" x2="5.90515" y2="129.224" gradientUnits="userSpaceOnUse">
<stop stop-color="#5596F8"/>
<stop offset="1" stop-color="#1A8EF9"/>
</linearGradient>
<linearGradient id="paint2_linear" x1="5.90515" y1="14.2243" x2="5.90515" y2="24.2243" gradientUnits="userSpaceOnUse">
<stop stop-color="#5596F8"/>
<stop offset="1" stop-color="#1A8EF9"/>
</linearGradient>
<linearGradient id="paint3_linear" x1="5.90515" y1="84.2243" x2="5.90515" y2="94.2243" gradientUnits="userSpaceOnUse">
<stop stop-color="#5596F8"/>
<stop offset="1" stop-color="#1A8EF9"/>
</linearGradient>
<linearGradient id="paint4_linear" x1="5.90515" y1="49.2243" x2="5.90515" y2="59.2243" gradientUnits="userSpaceOnUse">
<stop stop-color="#5596F8"/>
<stop offset="1" stop-color="#1A8EF9"/>
</linearGradient>
<linearGradient id="paint5_linear" x1="35.9052" y1="154.224" x2="35.9052" y2="164.224" gradientUnits="userSpaceOnUse">
<stop stop-color="#5596F8"/>
<stop offset="1" stop-color="#1A8EF9"/>
</linearGradient>
<linearGradient id="paint6_linear" x1="35.9052" y1="119.224" x2="35.9052" y2="129.224" gradientUnits="userSpaceOnUse">
<stop stop-color="#5596F8"/>
<stop offset="1" stop-color="#1A8EF9"/>
</linearGradient>
<linearGradient id="paint7_linear" x1="35.9052" y1="14.2243" x2="35.9052" y2="24.2243" gradientUnits="userSpaceOnUse">
<stop stop-color="#5596F8"/>
<stop offset="1" stop-color="#1A8EF9"/>
</linearGradient>
<linearGradient id="paint8_linear" x1="35.9052" y1="84.2243" x2="35.9052" y2="94.2243" gradientUnits="userSpaceOnUse">
<stop stop-color="#5596F8"/>
<stop offset="1" stop-color="#1A8EF9"/>
</linearGradient>
<linearGradient id="paint9_linear" x1="35.9052" y1="49.2243" x2="35.9052" y2="59.2243" gradientUnits="userSpaceOnUse">
<stop stop-color="#5596F8"/>
<stop offset="1" stop-color="#1A8EF9"/>
</linearGradient>
<linearGradient id="paint10_linear" x1="65.9052" y1="154.224" x2="65.9052" y2="164.224" gradientUnits="userSpaceOnUse">
<stop stop-color="#5596F8"/>
<stop offset="1" stop-color="#1A8EF9"/>
</linearGradient>
<linearGradient id="paint11_linear" x1="65.9052" y1="119.224" x2="65.9052" y2="129.224" gradientUnits="userSpaceOnUse">
<stop stop-color="#5596F8"/>
<stop offset="1" stop-color="#1A8EF9"/>
</linearGradient>
<linearGradient id="paint12_linear" x1="65.9052" y1="14.2243" x2="65.9052" y2="24.2243" gradientUnits="userSpaceOnUse">
<stop stop-color="#5596F8"/>
<stop offset="1" stop-color="#1A8EF9"/>
</linearGradient>
<linearGradient id="paint13_linear" x1="65.9052" y1="84.2243" x2="65.9052" y2="94.2243" gradientUnits="userSpaceOnUse">
<stop stop-color="#5596F8"/>
<stop offset="1" stop-color="#1A8EF9"/>
</linearGradient>
<linearGradient id="paint14_linear" x1="65.9052" y1="49.2243" x2="65.9052" y2="59.2243" gradientUnits="userSpaceOnUse">
<stop stop-color="#5596F8"/>
<stop offset="1" stop-color="#1A8EF9"/>
</linearGradient>
<linearGradient id="paint15_linear" x1="95.9052" y1="154.224" x2="95.9052" y2="164.224" gradientUnits="userSpaceOnUse">
<stop stop-color="#5596F8"/>
<stop offset="1" stop-color="#1A8EF9"/>
</linearGradient>
<linearGradient id="paint16_linear" x1="95.9052" y1="119.224" x2="95.9052" y2="129.224" gradientUnits="userSpaceOnUse">
<stop stop-color="#5596F8"/>
<stop offset="1" stop-color="#1A8EF9"/>
</linearGradient>
<linearGradient id="paint17_linear" x1="95.9052" y1="14.2243" x2="95.9052" y2="24.2243" gradientUnits="userSpaceOnUse">
<stop stop-color="#5596F8"/>
<stop offset="1" stop-color="#1A8EF9"/>
</linearGradient>
<linearGradient id="paint18_linear" x1="95.9052" y1="84.2243" x2="95.9052" y2="94.2243" gradientUnits="userSpaceOnUse">
<stop stop-color="#5596F8"/>
<stop offset="1" stop-color="#1A8EF9"/>
</linearGradient>
<linearGradient id="paint19_linear" x1="95.9052" y1="49.2243" x2="95.9052" y2="59.2243" gradientUnits="userSpaceOnUse">
<stop stop-color="#5596F8"/>
<stop offset="1" stop-color="#1A8EF9"/>
</linearGradient>
</defs>
</svg>
