<svg width="99" height="81" viewBox="0 0 99 81" fill="none" xmlns="http://www.w3.org/2000/svg">
<rect x="1.5" y="1.60742" width="82" height="77.7851" stroke="url(#paint0_linear)" stroke-width="3"/>
<path d="M33.12 23.9149V29.8649H39.57V30.7149H33.12V37.2149H32.09V23.0649H40.57V23.9149H33.12ZM46.0292 27.1049C46.7426 27.1049 47.3792 27.2282 47.9392 27.4749C48.5059 27.7149 48.9826 28.0582 49.3692 28.5049C49.7559 28.9515 50.0492 29.4915 50.2492 30.1249C50.4559 30.7515 50.5592 31.4549 50.5592 32.2349C50.5592 33.0149 50.4559 33.7182 50.2492 34.3449C50.0492 34.9715 49.7559 35.5082 49.3692 35.9549C48.9826 36.4015 48.5059 36.7449 47.9392 36.9849C47.3792 37.2249 46.7426 37.3449 46.0292 37.3449C45.3159 37.3449 44.6759 37.2249 44.1092 36.9849C43.5492 36.7449 43.0726 36.4015 42.6792 35.9549C42.2926 35.5082 41.9959 34.9715 41.7892 34.3449C41.5892 33.7182 41.4892 33.0149 41.4892 32.2349C41.4892 31.4549 41.5892 30.7515 41.7892 30.1249C41.9959 29.4915 42.2926 28.9515 42.6792 28.5049C43.0726 28.0582 43.5492 27.7149 44.1092 27.4749C44.6759 27.2282 45.3159 27.1049 46.0292 27.1049ZM46.0292 36.5949C46.6226 36.5949 47.1392 36.4949 47.5792 36.2949C48.0259 36.0882 48.3959 35.7949 48.6892 35.4149C48.9892 35.0349 49.2126 34.5782 49.3592 34.0449C49.5059 33.5049 49.5792 32.9015 49.5792 32.2349C49.5792 31.5749 49.5059 30.9749 49.3592 30.4349C49.2126 29.8949 48.9892 29.4349 48.6892 29.0549C48.3959 28.6682 48.0259 28.3715 47.5792 28.1649C47.1392 27.9582 46.6226 27.8549 46.0292 27.8549C45.4359 27.8549 44.9159 27.9582 44.4692 28.1649C44.0292 28.3715 43.6592 28.6682 43.3592 29.0549C43.0659 29.4349 42.8426 29.8949 42.6892 30.4349C42.5426 30.9749 42.4692 31.5749 42.4692 32.2349C42.4692 32.9015 42.5426 33.5049 42.6892 34.0449C42.8426 34.5782 43.0659 35.0349 43.3592 35.4149C43.6592 35.7949 44.0292 36.0882 44.4692 36.2949C44.9159 36.4949 45.4359 36.5949 46.0292 36.5949ZM57.1816 27.1049C57.8949 27.1049 58.5316 27.2282 59.0916 27.4749C59.6582 27.7149 60.1349 28.0582 60.5216 28.5049C60.9082 28.9515 61.2016 29.4915 61.4016 30.1249C61.6082 30.7515 61.7116 31.4549 61.7116 32.2349C61.7116 33.0149 61.6082 33.7182 61.4016 34.3449C61.2016 34.9715 60.9082 35.5082 60.5216 35.9549C60.1349 36.4015 59.6582 36.7449 59.0916 36.9849C58.5316 37.2249 57.8949 37.3449 57.1816 37.3449C56.4682 37.3449 55.8282 37.2249 55.2616 36.9849C54.7016 36.7449 54.2249 36.4015 53.8316 35.9549C53.4449 35.5082 53.1482 34.9715 52.9416 34.3449C52.7416 33.7182 52.6416 33.0149 52.6416 32.2349C52.6416 31.4549 52.7416 30.7515 52.9416 30.1249C53.1482 29.4915 53.4449 28.9515 53.8316 28.5049C54.2249 28.0582 54.7016 27.7149 55.2616 27.4749C55.8282 27.2282 56.4682 27.1049 57.1816 27.1049ZM57.1816 36.5949C57.7749 36.5949 58.2916 36.4949 58.7316 36.2949C59.1782 36.0882 59.5482 35.7949 59.8416 35.4149C60.1416 35.0349 60.3649 34.5782 60.5116 34.0449C60.6582 33.5049 60.7316 32.9015 60.7316 32.2349C60.7316 31.5749 60.6582 30.9749 60.5116 30.4349C60.3649 29.8949 60.1416 29.4349 59.8416 29.0549C59.5482 28.6682 59.1782 28.3715 58.7316 28.1649C58.2916 27.9582 57.7749 27.8549 57.1816 27.8549C56.5882 27.8549 56.0682 27.9582 55.6216 28.1649C55.1816 28.3715 54.8116 28.6682 54.5116 29.0549C54.2182 29.4349 53.9949 29.8949 53.8416 30.4349C53.6949 30.9749 53.6216 31.5749 53.6216 32.2349C53.6216 32.9015 53.6949 33.5049 53.8416 34.0449C53.9949 34.5782 54.2182 35.0349 54.5116 35.4149C54.8116 35.7949 55.1816 36.0882 55.6216 36.2949C56.0682 36.4949 56.5882 36.5949 57.1816 36.5949ZM66.9381 37.3749C66.2648 37.3749 65.7381 37.1882 65.3581 36.8149C64.9848 36.4415 64.7981 35.8649 64.7981 35.0849V28.2849H63.3681C63.2948 28.2849 63.2348 28.2649 63.1881 28.2249C63.1415 28.1849 63.1181 28.1282 63.1181 28.0549V27.6849L64.8181 27.5649L65.0581 24.0049C65.0715 23.9449 65.0981 23.8915 65.1381 23.8449C65.1781 23.7982 65.2348 23.7749 65.3081 23.7749H65.7581V27.5749H68.8981V28.2849H65.7581V35.0349C65.7581 35.3082 65.7915 35.5449 65.8581 35.7449C65.9315 35.9382 66.0281 36.0982 66.1481 36.2249C66.2748 36.3515 66.4215 36.4449 66.5881 36.5049C66.7548 36.5649 66.9348 36.5949 67.1281 36.5949C67.3681 36.5949 67.5748 36.5615 67.7481 36.4949C67.9215 36.4215 68.0715 36.3449 68.1981 36.2649C68.3248 36.1782 68.4281 36.1015 68.5081 36.0349C68.5881 35.9615 68.6515 35.9249 68.6981 35.9249C68.7515 35.9249 68.8048 35.9582 68.8581 36.0249L69.1181 36.4449C68.8648 36.7249 68.5415 36.9515 68.1481 37.1249C67.7615 37.2915 67.3581 37.3749 66.9381 37.3749ZM72.0336 35.0449C72.4203 35.6182 72.8436 36.0215 73.3036 36.2549C73.7703 36.4815 74.2936 36.5949 74.8736 36.5949C75.4669 36.5949 75.9836 36.4882 76.4236 36.2749C76.8703 36.0615 77.2403 35.7582 77.5336 35.3649C77.8336 34.9649 78.0569 34.4815 78.2036 33.9149C78.3503 33.3482 78.4236 32.7115 78.4236 32.0049C78.4236 30.6315 78.1503 29.5982 77.6036 28.9049C77.0569 28.2115 76.2903 27.8649 75.3036 27.8649C74.5969 27.8649 73.9803 28.0349 73.4536 28.3749C72.9269 28.7149 72.4536 29.1882 72.0336 29.7949V35.0449ZM72.0336 28.9949C72.4669 28.4082 72.9736 27.9482 73.5536 27.6149C74.1336 27.2749 74.8069 27.1049 75.5736 27.1049C76.1736 27.1049 76.7103 27.2149 77.1836 27.4349C77.6569 27.6549 78.0569 27.9715 78.3836 28.3849C78.7169 28.7982 78.9703 29.3082 79.1436 29.9149C79.3169 30.5149 79.4036 31.1982 79.4036 31.9649C79.4036 32.7715 79.3069 33.5082 79.1136 34.1749C78.9203 34.8349 78.6369 35.4015 78.2636 35.8749C77.8969 36.3415 77.4469 36.7049 76.9136 36.9649C76.3803 37.2182 75.7703 37.3449 75.0836 37.3449C74.3769 37.3449 73.7736 37.2115 73.2736 36.9449C72.7803 36.6715 72.3536 36.2682 71.9936 35.7349L71.9236 36.9649C71.9036 37.1315 71.8136 37.2149 71.6536 37.2149H71.0736V22.6649H72.0336V28.9949ZM87.6592 32.4049C86.7126 32.4382 85.8959 32.5149 85.2092 32.6349C84.5292 32.7482 83.9659 32.9049 83.5192 33.1049C83.0792 33.3049 82.7526 33.5449 82.5392 33.8249C82.3259 34.0982 82.2192 34.4115 82.2192 34.7649C82.2192 35.0982 82.2726 35.3882 82.3792 35.6349C82.4926 35.8749 82.6392 36.0749 82.8192 36.2349C83.0059 36.3882 83.2192 36.5015 83.4592 36.5749C83.6992 36.6482 83.9492 36.6849 84.2092 36.6849C84.5959 36.6849 84.9492 36.6449 85.2692 36.5649C85.5959 36.4782 85.8959 36.3615 86.1692 36.2149C86.4492 36.0615 86.7092 35.8815 86.9492 35.6749C87.1892 35.4682 87.4259 35.2449 87.6592 35.0049V32.4049ZM81.8092 28.6749C82.3292 28.1549 82.8759 27.7615 83.4492 27.4949C84.0226 27.2282 84.6726 27.0949 85.3992 27.0949C85.9326 27.0949 86.3992 27.1815 86.7992 27.3549C87.1992 27.5215 87.5292 27.7649 87.7892 28.0849C88.0559 28.3982 88.2559 28.7815 88.3892 29.2349C88.5226 29.6815 88.5892 30.1815 88.5892 30.7349V37.2149H88.2092C88.0092 37.2149 87.8859 37.1215 87.8392 36.9349L87.6992 35.6549C87.4259 35.9215 87.1526 36.1615 86.8792 36.3749C86.6126 36.5882 86.3326 36.7682 86.0392 36.9149C85.7459 37.0615 85.4292 37.1749 85.0892 37.2549C84.7492 37.3349 84.3759 37.3749 83.9692 37.3749C83.6292 37.3749 83.2992 37.3249 82.9792 37.2249C82.6592 37.1249 82.3726 36.9715 82.1192 36.7649C81.8726 36.5582 81.6726 36.2949 81.5192 35.9749C81.3726 35.6482 81.2992 35.2582 81.2992 34.8049C81.2992 34.3849 81.4192 33.9949 81.6592 33.6349C81.8992 33.2749 82.2759 32.9615 82.7892 32.6949C83.3026 32.4282 83.9592 32.2149 84.7592 32.0549C85.5659 31.8949 86.5326 31.8015 87.6592 31.7749V30.7349C87.6592 29.8149 87.4592 29.1082 87.0592 28.6149C86.6659 28.1149 86.0792 27.8649 85.2992 27.8649C84.8192 27.8649 84.4092 27.9315 84.0692 28.0649C83.7359 28.1982 83.4526 28.3449 83.2192 28.5049C82.9859 28.6649 82.7959 28.8115 82.6492 28.9449C82.5026 29.0782 82.3792 29.1449 82.2792 29.1449C82.2059 29.1449 82.1459 29.1282 82.0992 29.0949C82.0526 29.0615 82.0126 29.0182 81.9792 28.9649L81.8092 28.6749ZM92.8267 22.6649V37.2149H91.8667V22.6649H92.8267ZM97.2408 22.6649V37.2149H96.2808V22.6649H97.2408ZM49.86 47.0649L45.41 61.2149H44.49L40.31 48.9349C40.2567 48.7682 40.21 48.5949 40.17 48.4149C40.13 48.5949 40.0833 48.7682 40.03 48.9349L35.84 61.2149H34.93L30.47 47.0649H31.32C31.5133 47.0649 31.6367 47.1549 31.69 47.3349L35.26 58.9649C35.3333 59.2315 35.4 59.5349 35.46 59.8749C35.4933 59.7015 35.5267 59.5415 35.56 59.3949C35.5933 59.2415 35.6333 59.0982 35.68 58.9649L39.68 47.3349C39.7067 47.2615 39.7533 47.1982 39.82 47.1449C39.8867 47.0915 39.9667 47.0649 40.06 47.0649H40.34C40.4333 47.0649 40.51 47.0915 40.57 47.1449C40.63 47.1915 40.6767 47.2549 40.71 47.3349L44.71 58.9649C44.7567 59.0915 44.7967 59.2315 44.83 59.3849C44.87 59.5382 44.9067 59.6982 44.94 59.8649C44.9733 59.6982 45.0033 59.5415 45.03 59.3949C45.0633 59.2415 45.0967 59.0982 45.13 58.9649L48.7 47.3349C48.72 47.2615 48.7633 47.1982 48.83 47.1449C48.9033 47.0915 48.9867 47.0649 49.08 47.0649H49.86ZM56.5459 56.4049C55.5993 56.4382 54.7826 56.5149 54.0959 56.6349C53.4159 56.7482 52.8526 56.9049 52.4059 57.1049C51.9659 57.3049 51.6393 57.5449 51.4259 57.8249C51.2126 58.0982 51.1059 58.4115 51.1059 58.7649C51.1059 59.0982 51.1593 59.3882 51.2659 59.6349C51.3793 59.8749 51.5259 60.0749 51.7059 60.2349C51.8926 60.3882 52.1059 60.5015 52.3459 60.5749C52.5859 60.6482 52.8359 60.6849 53.0959 60.6849C53.4826 60.6849 53.8359 60.6449 54.1559 60.5649C54.4826 60.4782 54.7826 60.3615 55.0559 60.2149C55.3359 60.0615 55.5959 59.8815 55.8359 59.6749C56.0759 59.4682 56.3126 59.2449 56.5459 59.0049V56.4049ZM50.6959 52.6749C51.2159 52.1549 51.7626 51.7615 52.3359 51.4949C52.9093 51.2282 53.5593 51.0949 54.2859 51.0949C54.8193 51.0949 55.2859 51.1815 55.6859 51.3549C56.0859 51.5215 56.4159 51.7649 56.6759 52.0849C56.9426 52.3982 57.1426 52.7815 57.2759 53.2349C57.4093 53.6815 57.4759 54.1815 57.4759 54.7349V61.2149H57.0959C56.8959 61.2149 56.7726 61.1215 56.7259 60.9349L56.5859 59.6549C56.3126 59.9215 56.0393 60.1615 55.7659 60.3749C55.4993 60.5882 55.2193 60.7682 54.9259 60.9149C54.6326 61.0615 54.3159 61.1749 53.9759 61.2549C53.6359 61.3349 53.2626 61.3749 52.8559 61.3749C52.5159 61.3749 52.1859 61.3249 51.8659 61.2249C51.5459 61.1249 51.2593 60.9715 51.0059 60.7649C50.7593 60.5582 50.5593 60.2949 50.4059 59.9749C50.2593 59.6482 50.1859 59.2582 50.1859 58.8049C50.1859 58.3849 50.3059 57.9949 50.5459 57.6349C50.7859 57.2749 51.1626 56.9615 51.6759 56.6949C52.1893 56.4282 52.8459 56.2149 53.6459 56.0549C54.4526 55.8949 55.4193 55.8015 56.5459 55.7749V54.7349C56.5459 53.8149 56.3459 53.1082 55.9459 52.6149C55.5526 52.1149 54.9659 51.8649 54.1859 51.8649C53.7059 51.8649 53.2959 51.9315 52.9559 52.0649C52.6226 52.1982 52.3393 52.3449 52.1059 52.5049C51.8726 52.6649 51.6826 52.8115 51.5359 52.9449C51.3893 53.0782 51.2659 53.1449 51.1659 53.1449C51.0926 53.1449 51.0326 53.1282 50.9859 53.0949C50.9393 53.0615 50.8993 53.0182 50.8659 52.9649L50.6959 52.6749ZM63.2663 61.3749C62.5929 61.3749 62.0663 61.1882 61.6863 60.8149C61.3129 60.4415 61.1263 59.8649 61.1263 59.0849V52.2849H59.6963C59.6229 52.2849 59.5629 52.2649 59.5163 52.2249C59.4696 52.1849 59.4463 52.1282 59.4463 52.0549V51.6849L61.1463 51.5649L61.3863 48.0049C61.3996 47.9449 61.4263 47.8915 61.4663 47.8449C61.5063 47.7982 61.5629 47.7749 61.6363 47.7749H62.0863V51.5749H65.2263V52.2849H62.0863V59.0349C62.0863 59.3082 62.1196 59.5449 62.1863 59.7449C62.2596 59.9382 62.3563 60.0982 62.4763 60.2249C62.6029 60.3515 62.7496 60.4449 62.9163 60.5049C63.0829 60.5649 63.2629 60.5949 63.4563 60.5949C63.6963 60.5949 63.9029 60.5615 64.0763 60.4949C64.2496 60.4215 64.3996 60.3449 64.5263 60.2649C64.6529 60.1782 64.7563 60.1015 64.8363 60.0349C64.9163 59.9615 64.9796 59.9249 65.0263 59.9249C65.0796 59.9249 65.1329 59.9582 65.1863 60.0249L65.4463 60.4449C65.1929 60.7249 64.8696 60.9515 64.4763 61.1249C64.0896 61.2915 63.6863 61.3749 63.2663 61.3749ZM74.0527 52.5949C74.0193 52.6282 73.986 52.6582 73.9527 52.6849C73.926 52.7049 73.886 52.7149 73.8327 52.7149C73.766 52.7149 73.676 52.6715 73.5627 52.5849C73.4493 52.4915 73.296 52.3915 73.1027 52.2849C72.9093 52.1782 72.666 52.0815 72.3727 51.9949C72.086 51.9015 71.736 51.8549 71.3227 51.8549C70.7493 51.8549 70.2393 51.9582 69.7927 52.1649C69.3527 52.3649 68.9793 52.6549 68.6727 53.0349C68.366 53.4149 68.1327 53.8749 67.9727 54.4149C67.8193 54.9549 67.7427 55.5615 67.7427 56.2349C67.7427 56.9349 67.8227 57.5549 67.9827 58.0949C68.1493 58.6349 68.3827 59.0915 68.6827 59.4649C68.9827 59.8315 69.346 60.1115 69.7727 60.3049C70.1993 60.4982 70.6727 60.5949 71.1927 60.5949C71.6727 60.5949 72.0727 60.5382 72.3927 60.4249C72.7193 60.3115 72.986 60.1882 73.1927 60.0549C73.406 59.9215 73.5727 59.7982 73.6927 59.6849C73.8127 59.5715 73.9127 59.5149 73.9927 59.5149C74.0727 59.5149 74.1393 59.5482 74.1927 59.6149L74.4427 59.9349C74.2893 60.1349 74.096 60.3215 73.8627 60.4949C73.6293 60.6682 73.366 60.8182 73.0727 60.9449C72.7793 61.0715 72.4593 61.1682 72.1127 61.2349C71.7727 61.3082 71.416 61.3449 71.0427 61.3449C70.4093 61.3449 69.8293 61.2315 69.3027 61.0049C68.7827 60.7715 68.3327 60.4382 67.9527 60.0049C67.5793 59.5649 67.286 59.0282 67.0727 58.3949C66.866 57.7615 66.7627 57.0415 66.7627 56.2349C66.7627 55.4749 66.8627 54.7815 67.0627 54.1549C67.2627 53.5282 67.556 52.9882 67.9427 52.5349C68.3293 52.0815 68.7993 51.7315 69.3527 51.4849C69.9127 51.2315 70.5527 51.1049 71.2727 51.1049C71.9193 51.1049 72.4927 51.2082 72.9927 51.4149C73.4927 51.6215 73.9293 51.9015 74.3027 52.2549L74.0527 52.5949ZM77.7563 52.9449C78.2163 52.3849 78.7396 51.9382 79.3263 51.6049C79.9196 51.2715 80.5829 51.1049 81.3163 51.1049C81.8629 51.1049 82.3429 51.1915 82.7563 51.3649C83.1763 51.5382 83.5229 51.7882 83.7963 52.1149C84.0696 52.4415 84.2763 52.8349 84.4163 53.2949C84.5563 53.7549 84.6263 54.2749 84.6263 54.8549V61.2149H83.6663V54.8549C83.6663 53.9215 83.4529 53.1915 83.0263 52.6649C82.5996 52.1315 81.9496 51.8649 81.0763 51.8649C80.4296 51.8649 79.8229 52.0315 79.2563 52.3649C78.6963 52.6915 78.1963 53.1482 77.7563 53.7349V61.2149H76.7963V46.6649H77.7563V52.9449Z" fill="white"/>
<defs>
<linearGradient id="paint0_linear" x1="-5.73728e-07" y1="40.0248" x2="85" y2="40.0248" gradientUnits="userSpaceOnUse">
<stop stop-color="white"/>
<stop offset="1" stop-opacity="0"/>
</linearGradient>
</defs>
</svg>
